#!OML:ASF G:\JayActor3\Patient Classification 1\Patient 1\Session 5\male.ASF
:FULLY-SPECIFIED
:DEGREES
572
root 6.58512 16.5917 -5.23511 354.771 86.8452 357.415
lowerback 1.44682 -0.740766 -0.196937
upperback 2.46268 -0.950716 -0.7749
thorax 1.70174 -0.459255 -0.6837
lowerneck -7.49958 0.90585 2.59319
upperneck 8.85214 0.870296 0.782132
head 4.27078 0.572119 -0.145965
rclavicle -1.44492e-014 -7.15625e-015
rhumerus -32.1947 -3.81041 -87.5353
rradius 30.1633
rwrist 0.868398
rhand -18.0253 -8.0066
rfingers 7.12502
rthumb 8.24587 -37.8257
lclavicle -1.44492e-014 -7.15625e-015
lhumerus -29.1506 -0.462076 85.7626
lradius 34.2227
lwrist 20.4413
lhand -17.191 13.4124
lfingers 7.12502
lthumb 9.051 43.1982
rfemur -28.6751 8.21131 19.9418
rtibia 55.4339
rfoot -20.5083 -15.0509
rtoes -6.07869
lfemur 2.63489 10.7445 -25.1769
ltibia 19.9205
lfoot -17.996 3.0956
ltoes -1.7068
573
root 6.68908 16.5951 -5.23454 355.698 86.8223 358.276
lowerback 1.43739 -0.733453 -0.257466
upperback 2.44797 -0.941305 -0.780037
thorax 1.69293 -0.455662 -0.655059
lowerneck -7.51522 0.906801 2.58299
upperneck 8.87527 0.871869 0.7841
head 4.28221 0.572995 -0.143251
rclavicle 4.84538e-016 -5.1684e-015
rhumerus -32.1527 -3.83003 -87.5448
rradius 30.1047
rwrist 0.870441
rhand -18.037 -8.01866
rfingers 7.12502
rthumb 8.23458 -37.8382
lclavicle 4.84538e-016 -5.1684e-015
lhumerus -29.0744 -0.615058 85.8279
lradius 34.4159
lwrist 20.5327
lhand -17.1841 13.3163
lfingers 7.12502
lthumb 9.0577 43.1018
rfemur -29.1365 8.47172 19.8038
rtibia 54.0282
rfoot -20.6667 -15.3222
rtoes -5.87994
lfemur 3.44407 10.7345 -25.1965
ltibia 19.0483
lfoot -17.846 3.14921
ltoes -1.84924
574
root 6.79317 16.5989 -5.23404 356.633 86.8048 359.146
lowerback 1.42824 -0.727897 -0.315835
upperback 2.43421 -0.934189 -0.785959
thorax 1.68484 -0.453147 -0.628439
lowerneck -7.52668 0.909542 2.57258
upperneck 8.89716 0.876364 0.782755
head 4.2924 0.57511 -0.141453
rclavicle 6.13748e-015 9.14409e-015
rhumerus -32.1112 -3.84722 -87.5514
rradius 30.038
rwrist 0.873543
rhand -18.0485 -8.04398
rfingers 7.12502
rthumb 8.22348 -37.8639
lclavicle 6.13748e-015 9.14409e-015
lhumerus -29.0008 -0.750247 85.893
lradius 34.5763
lwrist 20.6094
lhand -17.1964 13.2281
lfingers 7.12502
lthumb 9.04581 43.0141
rfemur -29.5665 8.67948 19.674
rtibia 52.6137
rfoot -20.8178 -15.6012
rtoes -5.5973
lfemur 4.29408 10.7127 -25.2203
ltibia 18.1021
lfoot -17.6465 3.21089
ltoes -2.03384
575
root 6.8972 16.6029 -5.23342 357.575 86.7938 360.027
lowerback 1.42882 -0.723248 -0.371339
upperback 2.41698 -0.92836 -0.794509
thorax 1.66764 -0.451201 -0.605948
lowerneck -7.53708 0.912836 2.56686
upperneck 8.92339 0.881543 0.776961
head 4.30403 0.577571 -0.141933
rclavicle 3.40419e-015 1.19271e-015
rhumerus -32.0796 -3.86851 -87.5542
rradius 29.9706
rwrist 0.883468
rhand -18.0432 -8.10046
rfingers 7.12502
rthumb 8.22866 -37.9202
lclavicle 3.40419e-015 1.19271e-015
lhumerus -28.9375 -0.873489 85.9562
lradius 34.7074
lwrist 20.6721
lhand -17.2201 13.1756
lfingers 7.12502
lthumb 9.02291 42.9626
rfemur -29.9644 8.83602 19.5548
rtibia 51.1942
rfoot -20.9188 -15.8995
rtoes -5.37087
lfemur 5.18456 10.6823 -25.2463
ltibia 17.0816
lfoot -17.4077 3.26468
ltoes -2.17476
576
root 7.0013 16.607 -5.23257 358.549 86.7858 360.937
lowerback 1.43336 -0.718914 -0.42609
upperback 2.39567 -0.923046 -0.805469
thorax 1.64395 -0.449479 -0.586256
lowerneck -7.53874 0.916093 2.56028
upperneck 8.94656 0.886992 0.772637
head 4.31277 0.580166 -0.141792
rclavicle -1.4064e-014 0
rhumerus -32.0587 -3.89735 -87.5533
rradius 29.9027
rwrist 0.89821
rhand -18.0414 -8.15578
rfingers 7.12502
rthumb 8.2304 -37.9755
lclavicle -1.4064e-014 0
lhumerus -28.8848 -0.980455 86.0168
lradius 34.8094
lwrist 20.7228
lhand -17.2452 13.1512
lfingers 7.12502
lthumb 8.99876 42.9392
rfemur -30.3334 8.94478 19.447
rtibia 49.7721
rfoot -21.037 -16.1461
rtoes -4.9514
lfemur 6.11112 10.6508 -25.2743
ltibia 15.9888
lfoot -17.1306 3.30889
ltoes -2.30491
577
root 7.10536 16.6111 -5.23136 359.546 86.7809 361.871
lowerback 1.43892 -0.714476 -0.482823
upperback 2.3739 -0.91761 -0.817584
thorax 1.61923 -0.447694 -0.566623
lowerneck -7.54476 0.91936 2.55892
upperneck 8.97193 0.892048 0.764616
head 4.32326 0.582597 -0.143826
rclavicle 7.86442e-015 8.94531e-015
rhumerus -32.0425 -3.93943 -87.5452
rradius 29.8341
rwrist 0.932117
rhand -18.0419 -8.19405
rfingers 7.12502
rthumb 8.22986 -38.0138
lclavicle 7.86442e-015 8.94531e-015
lhumerus -28.8353 -1.06966 86.0749
lradius 34.8801
lwrist 20.7606
lhand -17.2684 13.1511
lfingers 7.12502
lthumb 8.97637 42.9401
rfemur -30.676 9.00474 19.3537
rtibia 48.3516
rfoot -21.1435 -16.3531
rtoes -4.49948
lfemur 7.0695 10.6259 -25.3011
ltibia 14.8285
lfoot -16.8139 3.33709
ltoes -2.42694
578
root 7.20941 16.6148 -5.22965 360.642 86.7757 362.898
lowerback 1.44199 -0.708645 -0.547849
upperback 2.35321 -0.910277 -0.831104
thorax 1.59714 -0.445048 -0.543832
lowerneck -7.55641 0.920531 2.55554
upperneck 8.99504 0.894133 0.758343
head 4.33401 0.583539 -0.14508
rclavicle 7.20594e-016 -3.57812e-015
rhumerus -32.0285 -3.9941 -87.5304
rradius 29.7647
rwrist 0.978382
rhand -18.0274 -8.26419
rfingers 7.12502
rthumb 8.24385 -38.0834
lclavicle 7.20594e-016 -3.57812e-015
lhumerus -28.784 -1.13821 86.131
lradius 34.9172
lwrist 20.7836
lhand -17.2813 13.1598
lfingers 7.12502
lthumb 8.96386 42.9494
rfemur -30.9953 9.01721 19.2736
rtibia 46.9358
rfoot -21.2155 -16.5143
rtoes -4.11589
lfemur 8.05772 10.611 -25.3302
ltibia 13.602
lfoot -16.4651 3.351
ltoes -2.56286
579
root 7.31329 16.618 -5.22751 361.825 86.7661 364.006
lowerback 1.44037 -0.70088 -0.618479
upperback 2.33331 -0.900296 -0.846657
thorax 1.57855 -0.441121 -0.520058
lowerneck -7.57252 0.919696 2.55136
upperneck 9.01341 0.893377 0.752743
head 4.34392 0.583004 -0.146142
rclavicle 6.83322e-016 2.78299e-015
rhumerus -32.0166 -4.05368 -87.5128
rradius 29.6991
rwrist 1.02664
rhand -18.0254 -8.3196
rfingers 7.12502
rthumb 8.24586 -38.1387
lclavicle 6.83322e-016 2.78299e-015
lhumerus -28.7306 -1.18617 86.1842
lradius 34.9202
lwrist 20.7921
lhand -17.2904 13.1606
lfingers 7.12502
lthumb 8.95508 42.9506
rfemur -31.2974 8.98306 19.2083
rtibia 45.5277
rfoot -21.2496 -16.6103
rtoes -3.83745
lfemur 9.0751 10.608 -25.3618
ltibia 12.3048
lfoot -16.0764 3.35512
ltoes -2.73002
580
root 7.41723 16.6205 -5.2248 362.968 86.7541 365.072
lowerback 1.43155 -0.691837 -0.690077
upperback 2.31817 -0.88844 -0.86123
thorax 1.56891 -0.436246 -0.494884
lowerneck -7.59459 0.918122 2.54392
upperneck 9.02394 0.891358 0.751399
head 4.35214 0.581818 -0.145272
rclavicle -1.2014e-014 -4.37326e-015
rhumerus -32.0029 -4.12117 -87.4888
rradius 29.6379
rwrist 1.09363
rhand -18.02 -8.36872
rfingers 7.12502
rthumb 8.25108 -38.1876
lclavicle -1.2014e-014 -4.37326e-015
lhumerus -28.6725 -1.21409 86.2364
lradius 34.8904
lwrist 20.7899
lhand -17.2918 13.1459
lfingers 7.12502
lthumb 8.95376 42.9359
rfemur -31.5775 8.90248 19.1694
rtibia 44.1296
rfoot -21.2131 -16.6398
rtoes -3.77669
lfemur 10.137 10.6299 -25.3823
ltibia 10.9176
lfoot -15.6392 3.33379
ltoes -2.9238
581
root 7.52118 16.6226 -5.22169 364.088 86.7392 366.108
lowerback 1.4176 -0.680683 -0.758907
upperback 2.30292 -0.873665 -0.878002
thorax 1.56195 -0.429838 -0.473578
lowerneck -7.60995 0.913962 2.53893
upperneck 9.02331 0.885563 0.753151
head 4.35492 0.578851 -0.144095
rclavicle -5.57839e-015 4.77083e-015
rhumerus -31.9947 -4.1939 -87.464
rradius 29.5798
rwrist 1.16578
rhand -18.0187 -8.40621
rfingers 7.12502
rthumb 8.25232 -38.225
lclavicle -5.57839e-015 4.77083e-015
lhumerus -28.62 -1.23108 86.2864
lradius 34.8328
lwrist 20.7825
lhand -17.2866 13.1206
lfingers 7.12502
lthumb 8.95877 42.9103
rfemur -31.8408 8.77852 19.154
rtibia 42.7447
rfoot -21.0856 -16.5941
rtoes -3.95233
lfemur 11.2664 10.7197 -25.3827
ltibia 9.40656
lfoot -15.1464 3.22517
ltoes -3.05683
582
root 7.62527 16.6243 -5.21823 365.19 86.7222 367.123
lowerback 1.39615 -0.668951 -0.826317
upperback 2.29146 -0.857894 -0.895532
thorax 1.56302 -0.422888 -0.453972
lowerneck -7.616 0.908273 2.5347
upperneck 9.00416 0.877857 0.756469
head 4.34907 0.574758 -0.142745
rclavicle 3.16813e-015 1.5704e-014
rhumerus -31.987 -4.26288 -87.4401
rradius 29.5249
rwrist 1.23709
rhand -18.0192 -8.45676
rfingers 7.12502
rthumb 8.25182 -38.2756
lclavicle 3.16813e-015 1.5704e-014
lhumerus -28.5692 -1.23108 86.3348
lradius 34.7501
lwrist 20.7718
lhand -17.279 13.0932
lfingers 7.12502
lthumb 8.96609 42.8827
rfemur -32.0867 8.61611 19.1597
rtibia 41.3773
rfoot -20.8819 -16.4432
rtoes -4.22363
lfemur 12.5013 10.8065 -25.3769
ltibia 7.6926
lfoot -14.545 3.11928
ltoes -3.22574
583
root 7.72952 16.6254 -5.2144 366.249 86.7075 368.094
lowerback 1.37296 -0.657569 -0.890003
upperback 2.28169 -0.842467 -0.913724
thorax 1.56673 -0.416032 -0.437159
lowerneck -7.62197 0.900393 2.53173
upperneck 8.97812 0.866999 0.760554
head 4.3407 0.569089 -0.141583
rclavicle 1.00759e-014 2.98177e-015
rhumerus -31.9812 -4.3298 -87.4171
rradius 29.4703
rwrist 1.30971
rhand -18.0138 -8.525
rfingers 7.12502
rthumb 8.25704 -38.3436
lclavicle 1.00759e-014 2.98177e-015
lhumerus -28.5226 -1.21986 86.3831
lradius 34.6438
lwrist 20.7629
lhand -17.268 13.0785
lfingers 7.12502
lthumb 8.97674 42.8675
rfemur -32.312 8.42815 19.1831
rtibia 40.0323
rfoot -20.6182 -16.1874
rtoes -4.53472
lfemur 13.9544 10.8878 -25.3645
ltibia 5.57401
lfoot -13.7415 3.00738
ltoes -3.42521
584
root 7.83419 16.6258 -5.21029 367.308 86.6968 369.065
lowerback 1.34948 -0.648544 -0.950933
upperback 2.27328 -0.830065 -0.933614
thorax 1.5719 -0.410617 -0.423638
lowerneck -7.62391 0.89275 2.52953
upperneck 8.9434 0.856223 0.767961
head 4.32835 0.563527 -0.139478
rclavicle -1.51449e-014 1.63003e-014
rhumerus -31.9795 -4.39051 -87.397
rradius 29.4172
rwrist 1.3806
rhand -18.0201 -8.56603
rfingers 7.12502
rthumb 8.25096 -38.3849
lclavicle -1.51449e-014 1.63003e-014
lhumerus -28.4823 -1.19863 86.4308
lradius 34.5162
lwrist 20.7621
lhand -17.2617 13.0791
lfingers 7.12502
lthumb 8.98278 42.8678
rfemur -32.5118 8.23467 19.2138
rtibia 38.7151
rfoot -20.351 -15.8109
rtoes -4.73776
lfemur 16.2005 10.9609 -25.3536
ltibia 1.99735
lfoot -12.2567 2.87489
ltoes -3.68191
585
root 7.93941 16.6257 -5.20576 368.342 86.6984 370.014
lowerback 1.32886 -0.644862 -1.00949
upperback 2.26712 -0.824735 -0.952674
thorax 1.57774 -0.408691 -0.410577
lowerneck -7.62546 0.886743 2.52953
upperneck 8.90667 0.847506 0.774486
head 4.31525 0.558981 -0.137943
rclavicle -2.88238e-015 -6.95746e-015
rhumerus -31.9784 -4.4441 -87.3785
rradius 29.3621
rwrist 1.44816
rhand -18.0306 -8.57972
rfingers 7.12502
rthumb 8.24077 -38.399
lclavicle -2.88238e-015 -6.95746e-015
lhumerus -28.4483 -1.16825 86.4803
lradius 34.3667
lwrist 20.7685
lhand -17.2592 13.105
lfingers 7.12502
lthumb 8.9852 42.8936
rfemur -32.6806 8.05932 19.2462
rtibia 37.4305
rfoot -20.0941 -15.3681
rtoes -4.92831
lfemur 17.5876 11.0218 -25.3425
ltibia -2.54444e-014
lfoot -11.4616 2.79362
ltoes -3.98317
586
root 8.04538 16.6254 -5.20074 369.432 86.7147 371.023
lowerback 1.30861 -0.646006 -1.07059
upperback 2.26197 -0.825768 -0.972242
thorax 1.58445 -0.409972 -0.396629
lowerneck -7.62131 0.880263 2.53035
upperneck 8.8679 0.837981 0.784357
head 4.30025 0.554213 -0.135504
rclavicle -9.42985e-015 -3.18055e-015
rhumerus -31.9851 -4.49426 -87.3601
rradius 29.3103
rwrist 1.50968
rhand -18.0337 -8.58053
rfingers 7.12502
rthumb 8.23779 -38.3999
lclavicle -9.42985e-015 -3.18055e-015
lhumerus -28.427 -1.14249 86.5354
lradius 34.1992
lwrist 20.7979
lhand -17.2591 13.1257
lfingers 7.12502
lthumb 8.98528 42.9144
rfemur -32.817 7.92482 19.2672
rtibia 36.1838
rfoot -19.8784 -14.8969
rtoes -5.0805
lfemur 17.8957 11.0686 -25.3285
ltibia -5.40694e-014
lfoot -11.5655 2.7595
ltoes -4.27427
